<svg xmlns="http://www.w3.org/2000/svg" width="28.37" height="30.954" viewBox="0 0 28.37 30.954">
  <path id="Icon_ionic-ios-moon" data-name="Icon ionic-ios-moon" d="M31.529,27.89c-.234.008-.467.016-.7.016a14.209,14.209,0,0,1-10.22-4.3,14.683,14.683,0,0,1-4.231-10.381,14.868,14.868,0,0,1,1.41-6.343,21.007,21.007,0,0,1,1.1-1.886.318.318,0,0,0-.314-.492A15.517,15.517,0,0,0,5.625,19.895,15.439,15.439,0,0,0,20.947,35.45a15.194,15.194,0,0,0,11.679-5.489A14.723,14.723,0,0,0,33.947,28.2a.325.325,0,0,0-.33-.492A13.764,13.764,0,0,1,31.529,27.89Z" transform="translate(-5.625 -4.496)" fill="#b5b5b5" opacity="0.86"/>
</svg>
